<?xml version="1.0" encoding="UTF-8"?>
<!DOCTYPE svg PUBLIC "-//W3C//DTD SVG 1.1//EN" "http://www.w3.org/Graphics/SVG/1.1/DTD/svg11.dtd">
<!-- Creator: CorelDRAW 2020 (64 Bit) -->
<svg xmlns="http://www.w3.org/2000/svg" xml:space="preserve" width="50.7998mm" height="19.4732mm" version="1.1" style="shape-rendering:geometricPrecision; text-rendering:geometricPrecision; image-rendering:optimizeQuality; fill-rule:evenodd; clip-rule:evenodd"
viewBox="0 0 5079.98 1947.32"
 xmlns:xlink="http://www.w3.org/1999/xlink"
 xmlns:xodm="http://www.corel.com/coreldraw/odm/2003">
 <defs>
  <style type="text/css">
   <![CDATA[
    .fil1 {fill:#FEFEFE;fill-rule:nonzero}
    .fil0 {fill:url(#id0);fill-rule:nonzero}
    .fil2 {fill:url(#id1);fill-rule:nonzero}
   ]]>
  </style>
  <linearGradient id="id0" gradientUnits="userSpaceOnUse" x1="644.13" y1="107.48" x2="2701.47" y2="1522.72">
   <stop offset="0" style="stop-opacity:1; stop-color:#7C5AFD"/>
   <stop offset="1" style="stop-opacity:1; stop-color:#F959F8"/>
  </linearGradient>
  <linearGradient id="id1" gradientUnits="userSpaceOnUse" xlink:href="#id0" x1="4234.61" y1="526.17" x2="4681.31" y2="975.41">
  </linearGradient>
 </defs>
 <g id="Camada_x0020_1">
  <metadata id="CorelCorpID_0Corel-Layer"/>
  <path class="fil0" d="M251.64 5.26l3278.7 0c70.51,0 134.57,28.81 180.97,75.22 46.41,46.4 75.23,110.47 75.23,180.97l0 942.78c0,70.5 -28.82,134.57 -75.23,180.97 -46.4,46.4 -110.46,75.22 -180.97,75.22l-1582.44 0 0 430.4c0,28.3 -22.95,51.24 -51.25,51.24 -14.58,0 -27.75,-6.1 -37.08,-15.89l-542.84 -478.76c-21.11,-18.67 -23.08,-50.95 -4.4,-72.06 18.67,-21.11 50.95,-23.08 72.06,-4.41l461.02 406.62 0 -368.38c0,-28.3 22.94,-51.25 51.24,-51.25l1633.69 0c42.22,0 80.65,-17.31 108.52,-45.18 27.88,-27.88 45.19,-66.3 45.19,-108.52l0 -942.78c0,-42.22 -17.31,-80.65 -45.19,-108.52 -27.87,-27.88 -66.3,-45.18 -108.52,-45.18l-3278.7 0c-42.21,0 -80.64,17.3 -108.51,45.18 -27.88,27.87 -45.19,66.3 -45.19,108.52l0 296.89 0 1.32 0.02 0c0,28.3 -22.95,51.25 -51.25,51.25 -28.3,0 -51.25,-22.95 -51.25,-51.25l-0.01 0 0 -298.21c0,-70.5 28.82,-134.57 75.22,-180.97 46.41,-46.41 110.47,-75.22 180.97,-75.22z"/>
  <path class="fil1" d="M367.18 783.63c0,116.32 79.39,195.01 173.12,195.01 50.65,0 88.27,-22.58 112.9,-52.68l0 229.9 117.01 0 0 -563.82 -117.01 0 0 43.79c-23.26,-28.73 -61.57,-47.89 -111.52,-47.89 -95.11,0 -174.5,79.36 -174.5,195.69zm286.02 -0.69c0,64.33 -43.78,94.43 -83.47,94.43 -39,0 -83.48,-29.43 -83.48,-93.74 0,-64.32 44.48,-94.42 83.48,-94.42 39.69,0 83.47,29.42 83.47,93.73zm578.88 -190.9l-117.01 0 0 207.33c0,52 -28.74,80.73 -73.9,80.73 -43.78,0 -73.21,-28.73 -73.21,-80.73l0 -207.33 -116.33 0 0 223.07c0,101.95 59.55,162.85 147.81,162.85 51.31,0 92.38,-23.26 115.63,-56.11l0 52 117.01 0 0 -381.81zm252.47 88.27c39.02,0 71.85,23.96 71.85,65.68l-146.43 0c6.84,-42.42 36.26,-65.68 74.58,-65.68zm182.69 166.96l-124.52 0c-9.58,20.52 -28.05,36.94 -60.9,36.94 -37.64,0 -68.42,-23.26 -72.53,-73.21l264.8 0c1.37,-11.63 2.05,-23.26 2.05,-34.21 0,-116.33 -78.69,-190.21 -190.21,-190.21 -113.58,0 -192.97,75.26 -192.97,196.36 0,121.11 80.75,196.37 192.97,196.37 95.1,0 162.84,-57.46 181.31,-132.04zm380.45 15.73c-2.05,-142.32 -208.68,-99.21 -208.68,-160.11 0,-18.47 15.04,-29.42 42.4,-29.42 32.86,0 52.7,17.11 56.12,43.1l108.11 0c-7.52,-75.26 -62.26,-129.99 -160.79,-129.99 -99.9,0 -155.33,53.36 -155.33,118.36 0,140.27 208.01,95.79 208.01,157.38 0,17.1 -15.74,30.78 -45.84,30.78 -32.16,0 -56.11,-17.79 -58.85,-44.46l-115.63 0c5.47,73.89 73.89,130.67 175.85,130.67 95.79,0 154.63,-49.94 154.63,-116.31zm90.32 -21.9c0,99.22 55.43,132.75 134.8,132.75l59.52 0 0 -99.22 -41.72 0c-26.02,0 -35.59,-9.57 -35.59,-32.15l0 -153.27 76.64 0 0 -97.17 -76.64 0 0 -93.05 -117.01 0 0 93.05 -46.53 0 0 97.17 46.53 0 0 151.89zm259.33 132.75l117.01 0 0 -381.81 -117.01 0 0 381.81zm58.84 -421.5c41.06,0 69.1,-28.05 69.1,-62.95 0,-35.57 -28.04,-63.63 -69.1,-63.63 -41.74,0 -69.79,28.06 -69.79,63.63 0,34.9 28.05,62.95 69.79,62.95zm516.59 230.59c0,-121.1 -86.21,-196.36 -198.43,-196.36 -111.52,0 -198.43,75.26 -198.43,196.36 0,121.11 84.85,196.37 197.07,196.37 112.2,0 199.79,-75.26 199.79,-196.37zm-277.8 0c0,-64.99 36.96,-95.11 79.37,-95.11 41.07,0 79.39,30.12 79.39,95.11 0,64.33 -39.02,95.12 -80.75,95.12 -42.42,0 -78.01,-30.79 -78.01,-95.12zm603.49 190.91l116.33 0 0 -223.07c0,-102.63 -58.84,-162.84 -147.1,-162.84 -51.33,0 -92.38,22.58 -115.64,54.73l0 -50.63 -117.01 0 0 381.81 117.01 0 0 -207.33c0,-52 28.73,-80.74 73.21,-80.74 44.48,0 73.2,28.74 73.2,80.74l0 207.33z"/>
  <path class="fil2" d="M4486.89 973.85l116.33 0 39.67 -223.07c18.49,-102.63 -32.15,-162.84 -126.58,-162.84 -56.09,0 -109.47,30.79 -141.62,71.84 -17.12,-46.53 -59.54,-71.84 -117.69,-71.84 -49.27,0 -92.37,21.22 -120.44,52.68l8.22 -48.58 -117.01 0 -67.06 381.81 117.01 0 36.96 -210.74 0 3.41c8.2,-49.95 42.41,-77.31 86.89,-77.31 44.48,0 67.74,27.36 59.52,77.31l-36.94 207.33 116.31 0 36.96 -207.33 0 0c8.2,-49.95 42.43,-77.31 86.89,-77.31 44.48,0 67.74,27.36 59.54,77.31l-36.96 207.33zm418.08 -293.54c39.68,0 67.74,23.96 60.9,69.79l-147.12 0c13.68,-45.16 47.21,-69.79 86.22,-69.79zm153.96 166.96l-124.53 0c-13.01,20.52 -34.23,36.94 -67.06,36.94 -38.32,0 -65.01,-23.94 -59.53,-74.58l264.8 0c3.41,-11.63 6.16,-22.58 8.2,-33.53 20.54,-115.64 -45.84,-189.52 -157.36,-189.52 -113.6,0 -205.96,75.26 -227.18,196.36 -21.9,121.11 45.84,196.37 158.06,196.37 95.11,0 172.44,-57.46 204.6,-132.04z"/>
 </g>
</svg>
