<?xml version="1.0" encoding="UTF-8"?>
<!DOCTYPE svg PUBLIC "-//W3C//DTD SVG 1.1//EN" "http://www.w3.org/Graphics/SVG/1.1/DTD/svg11.dtd">
<!-- Creator: CorelDRAW 2020 (64 Bit) -->
<svg xmlns="http://www.w3.org/2000/svg" xml:space="preserve" width="5.4186mm" height="5.4186mm" version="1.1" style="shape-rendering:geometricPrecision; text-rendering:geometricPrecision; image-rendering:optimizeQuality; fill-rule:evenodd; clip-rule:evenodd"
viewBox="0 0 541.86 541.86"
 xmlns:xlink="http://www.w3.org/1999/xlink"
 xmlns:xodm="http://www.corel.com/coreldraw/odm/2003">
 <defs>
  <style type="text/css">
   <![CDATA[
    .fil0 {fill:url(#id0);fill-rule:nonzero}
   ]]>
  </style>
  <linearGradient id="id0" gradientUnits="userSpaceOnUse" x1="113.39" y1="201" x2="396.01" y2="302.22">
   <stop offset="0" style="stop-opacity:1; stop-color:#7C5AFD"/>
   <stop offset="1" style="stop-opacity:1; stop-color:#F959F8"/>
  </linearGradient>
 </defs>
 <g id="Camada_x0020_1">
  <metadata id="CorelCorpID_0Corel-Layer"/>
  <path class="fil0" d="M58.68 -0.01l424.52 0c7.85,0 15.44,1.61 22.4,4.49 7.12,2.96 13.61,7.35 19.01,12.76 5.39,5.33 9.77,11.81 12.76,19.02 2.89,6.95 4.5,14.54 4.5,22.4l0 244.05c0,7.85 -1.61,15.43 -4.5,22.39 -2.99,7.21 -7.38,13.7 -12.73,19.05 -5.43,5.39 -11.92,9.77 -19.04,12.73 -6.96,2.89 -14.55,4.5 -22.4,4.5l-188.91 0 0 51.42c-7.41,-2.19 -15.25,-3.37 -23.36,-3.37 -13.28,0 -25.83,3.15 -36.93,8.74l-71.45 -63c-5.05,-4.48 -7.84,-10.61 -8.22,-16.83 -0.37,-6.19 1.63,-12.58 6.11,-17.62l0.63 -0.74c4.42,-4.56 10.22,-7.09 16.12,-7.47 6.21,-0.39 12.6,1.62 17.68,6.09l50.44 44.5 0 -26.21c0,-6.69 2.75,-12.83 7.21,-17.28 4.4,-4.45 10.52,-7.21 17.28,-7.21l213.4 0c1.33,0 2.58,-0.26 3.66,-0.71 1.13,-0.47 2.23,-1.22 3.17,-2.16 1.75,-1.75 2.85,-4.18 2.85,-6.82l0 -244.05c0,-1.35 -0.25,-2.6 -0.69,-3.67 -0.47,-1.14 -1.23,-2.23 -2.16,-3.16 -0.93,-0.94 -2.03,-1.69 -3.16,-2.16 -1.06,-0.45 -2.3,-0.7 -3.67,-0.7l-424.52 0c-1.37,0 -2.63,0.25 -3.69,0.68 -1.12,0.49 -2.22,1.24 -3.15,2.18 -0.93,0.93 -1.69,2.02 -2.16,3.16 -0.44,1.07 -0.69,2.32 -0.69,3.67l0 49.75c0,6.68 -2.76,12.8 -7.18,17.25 -4.51,4.48 -10.62,7.24 -17.32,7.24 -6.76,0 -12.89,-2.76 -17.31,-7.18 -4.42,-4.51 -7.18,-10.63 -7.18,-17.31l0 -49.75c0,-7.87 1.61,-15.45 4.5,-22.41 2.99,-7.21 7.37,-13.69 12.72,-19.04 10.61,-10.61 25.31,-17.22 41.46,-17.22zm212.25 450.21c22.91,0 41.49,18.58 41.49,41.49 0,22.91 -18.58,41.49 -41.49,41.49 -22.91,0 -41.49,-18.58 -41.49,-41.49 0,-22.91 18.58,-41.49 41.49,-41.49z"/>
 </g>
</svg>
